<svg width="90" height="25" viewBox="0 0 90 25" fill="none" xmlns="http://www.w3.org/2000/svg">
<path d="M11.1648 0.727272H13.983V17.3636C13.983 18.8485 13.7102 20.1098 13.1648 21.1477C12.6193 22.1856 11.8504 22.9735 10.858 23.5114C9.86553 24.0492 8.69508 24.3182 7.34659 24.3182C6.07386 24.3182 4.94129 24.0871 3.94886 23.625C2.95644 23.1553 2.17614 22.4886 1.60795 21.625C1.03977 20.7614 0.755682 19.7348 0.755682 18.5455H3.52841C3.52841 19.2045 3.69129 19.7803 4.01705 20.2727C4.35038 20.7576 4.80492 21.1364 5.38068 21.4091C5.95644 21.6818 6.61174 21.8182 7.34659 21.8182C8.1572 21.8182 8.84659 21.6477 9.41477 21.3068C9.98295 20.9659 10.4148 20.4659 10.7102 19.8068C11.0133 19.1402 11.1648 18.3258 11.1648 17.3636V0.727272ZM32.358 6.54545C32.2216 5.39394 31.6686 4.5 30.6989 3.86364C29.7292 3.22727 28.5398 2.90909 27.1307 2.90909C26.1004 2.90909 25.1989 3.07576 24.4261 3.40909C23.661 3.74242 23.0625 4.20076 22.6307 4.78409C22.2064 5.36742 21.9943 6.0303 21.9943 6.77273C21.9943 7.39394 22.142 7.92803 22.4375 8.375C22.7405 8.81439 23.1269 9.18182 23.5966 9.47727C24.0663 9.76515 24.5587 10.0038 25.0739 10.1932C25.589 10.375 26.0625 10.5227 26.4943 10.6364L28.858 11.2727C29.464 11.4318 30.1383 11.6515 30.8807 11.9318C31.6307 12.2121 32.3466 12.5947 33.0284 13.0795C33.7178 13.5568 34.286 14.1705 34.733 14.9205C35.1799 15.6705 35.4034 16.5909 35.4034 17.6818C35.4034 18.9394 35.0739 20.0758 34.4148 21.0909C33.7633 22.1061 32.8087 22.9129 31.5511 23.5114C30.3011 24.1098 28.7822 24.4091 26.9943 24.4091C25.3277 24.4091 23.8845 24.1402 22.6648 23.6023C21.4527 23.0644 20.4981 22.3144 19.8011 21.3523C19.1117 20.3902 18.7216 19.2727 18.6307 18H21.5398C21.6155 18.8788 21.911 19.6061 22.4261 20.1818C22.9489 20.75 23.608 21.1742 24.4034 21.4545C25.2064 21.7273 26.0701 21.8636 26.9943 21.8636C28.0701 21.8636 29.036 21.6894 29.892 21.3409C30.7481 20.9848 31.4261 20.4924 31.9261 19.8636C32.4261 19.2273 32.6761 18.4848 32.6761 17.6364C32.6761 16.8636 32.4602 16.2348 32.0284 15.75C31.5966 15.2652 31.0284 14.8712 30.3239 14.5682C29.6193 14.2652 28.858 14 28.0398 13.7727L25.1761 12.9545C23.358 12.4318 21.9186 11.6856 20.858 10.7159C19.7973 9.74621 19.267 8.47727 19.267 6.90909C19.267 5.60606 19.6193 4.4697 20.3239 3.5C21.036 2.52273 21.9905 1.76515 23.1875 1.22727C24.392 0.681817 25.7367 0.40909 27.2216 0.40909C28.7216 0.40909 30.0549 0.678029 31.2216 1.21591C32.3883 1.74621 33.3125 2.47348 33.9943 3.39773C34.6837 4.32197 35.0473 5.37121 35.0852 6.54545H32.358Z" fill="black"/>
<path d="M38.0824 5.81818V0.727272H58.3097V5.81818H51.3097V24H45.0824V5.81818H38.0824ZM69.7216 16.3636V6.54545H75.9943V24H70.0398V20.6818H69.858C69.4792 21.7955 68.8163 22.6667 67.8693 23.2955C66.9223 23.9167 65.7973 24.2273 64.4943 24.2273C63.2746 24.2273 62.2064 23.947 61.2898 23.3864C60.3807 22.8258 59.6723 22.053 59.1648 21.0682C58.6648 20.0833 58.411 18.9545 58.4034 17.6818V6.54545H64.6761V16.3636C64.6837 17.2273 64.9034 17.9053 65.3352 18.3977C65.7746 18.8902 66.3883 19.1364 67.1761 19.1364C67.6989 19.1364 68.1496 19.0265 68.5284 18.8068C68.9148 18.5795 69.2102 18.2614 69.4148 17.8523C69.6269 17.4356 69.7292 16.9394 69.7216 16.3636ZM89.5938 6.54545V11.0909H78.0938V6.54545H89.5938ZM80.321 2.36364H86.5938V18.3864C86.5938 18.6288 86.6354 18.8333 86.7188 19C86.8021 19.1591 86.9309 19.2803 87.1051 19.3636C87.2794 19.4394 87.5028 19.4773 87.7756 19.4773C87.965 19.4773 88.1847 19.4545 88.4347 19.4091C88.6922 19.3636 88.8816 19.3258 89.0028 19.2955L89.9119 23.7045C89.6316 23.7879 89.2301 23.8902 88.7074 24.0114C88.1922 24.1326 87.5786 24.2121 86.8665 24.25C85.4271 24.3258 84.2188 24.178 83.2415 23.8068C82.2642 23.428 81.5294 22.8333 81.0369 22.0227C80.5445 21.2121 80.3059 20.197 80.321 18.9773V2.36364Z" fill="#128DFF"/>
</svg>
